<svg width="3000" height="3000" viewBox="0 0 3000 3000" fill="none" xmlns="http://www.w3.org/2000/svg">
<g clip-path="url(#clip0_3_2)">
<rect width="3000" height="3000" rx="800" fill="white"/>
<rect width="3000" height="3000" fill="#FFCC00"/>
<line y1="-49" x2="2923.59" y2="-49" transform="matrix(0.867678 -0.497127 0.651586 0.758575 -578.946 91.3933)" stroke="black" stroke-width="98"/>
<line y1="-49" x2="2923.59" y2="-49" transform="matrix(0.867678 -0.497127 0.651586 0.758575 -453.188 237.799)" stroke="black" stroke-width="98"/>
<line y1="-49" x2="2923.59" y2="-49" transform="matrix(0.867678 -0.497127 0.651586 0.758575 -1597.49 1111.85)" stroke="black" stroke-width="98"/>
<line y1="-49" x2="2923.59" y2="-49" transform="matrix(0.867678 -0.497127 0.651586 0.758575 -1471.73 1258.26)" stroke="black" stroke-width="98"/>
<line y1="-49" x2="2923.59" y2="-49" transform="matrix(0.867678 -0.497127 0.651586 0.758575 -75.9164 677.015)" stroke="black" stroke-width="98"/>
<line y1="-49" x2="2923.59" y2="-49" transform="matrix(0.867678 -0.497127 0.651586 0.758575 -1220.22 1551.07)" stroke="black" stroke-width="98"/>
<line y1="-49" x2="2923.59" y2="-49" transform="matrix(0.867678 -0.497127 0.651586 0.758575 -1094.46 1697.47)" stroke="black" stroke-width="98"/>
<line y1="-49" x2="2923.59" y2="-49" transform="matrix(0.867678 -0.497127 0.651586 0.758575 -968.708 1843.88)" stroke="black" stroke-width="98"/>
<line y1="-49" x2="2923.59" y2="-49" transform="matrix(0.867678 -0.497127 0.651586 0.758575 427.109 1262.62)" stroke="black" stroke-width="98"/>
<line y1="-49" x2="2923.59" y2="-49" transform="matrix(0.867678 -0.497127 0.651586 0.758575 552.865 1409.02)" stroke="black" stroke-width="98"/>
<line y1="-49" x2="2923.59" y2="-49" transform="matrix(0.867678 -0.497127 0.651586 0.758575 -466.867 2428.12)" stroke="black" stroke-width="98"/>
<line y1="-49" x2="2923.59" y2="-49" transform="matrix(0.867678 -0.497127 0.651586 0.758575 1054.7 1993.26)" stroke="black" stroke-width="98"/>
<line y1="-49" x2="2920.49" y2="-49" transform="matrix(0.862345 -0.506322 0.642373 0.766392 -1849 819.048)" stroke="black" stroke-width="98"/>
<line y1="-49" x2="2923.59" y2="-49" transform="matrix(0.867678 -0.497127 0.651586 0.758575 -1723.24 965.447)" stroke="black" stroke-width="98"/>
<line y1="-49" x2="2923.59" y2="-49" transform="matrix(0.867678 -0.497127 0.651586 0.758575 -327.426 384.204)" stroke="black" stroke-width="98"/>
<line y1="-49" x2="2923.59" y2="-49" transform="matrix(0.867678 -0.497127 0.651586 0.758575 -201.672 530.609)" stroke="black" stroke-width="98"/>
<line y1="-49" x2="2923.59" y2="-49" transform="matrix(0.867678 -0.497127 0.651586 0.758575 -1345.98 1404.66)" stroke="black" stroke-width="98"/>
<line y1="-49" x2="2923.59" y2="-49" transform="matrix(0.867678 -0.497127 0.651586 0.758575 49.8395 823.403)" stroke="black" stroke-width="98"/>
<line y1="-49" x2="2923.59" y2="-49" transform="matrix(0.867678 -0.497127 0.651586 0.758575 175.594 969.809)" stroke="black" stroke-width="98"/>
<line y1="-49" x2="2923.59" y2="-49" transform="matrix(0.867678 -0.497127 0.651586 0.758575 301.353 1116.21)" stroke="black" stroke-width="98"/>
<line y1="-49" x2="2923.59" y2="-49" transform="matrix(0.867678 -0.497127 0.651586 0.758575 -842.949 1990.28)" stroke="black" stroke-width="98"/>
<line y1="-49" x2="2923.59" y2="-49" transform="matrix(0.867678 -0.497127 0.651586 0.758575 -717.192 2136.69)" stroke="black" stroke-width="98"/>
<line y1="-49" x2="2923.59" y2="-49" transform="matrix(0.867678 -0.497127 0.651586 0.758575 803.193 1700.45)" stroke="black" stroke-width="98"/>
<line y1="-49" x2="2923.59" y2="-49" transform="matrix(0.867678 -0.497127 0.651586 0.758575 -215.357 2720.93)" stroke="black" stroke-width="98"/>
<line y1="-49" x2="2923.59" y2="-49" transform="matrix(0.867678 -0.497127 0.651586 0.758575 678.622 1555.43)" stroke="black" stroke-width="98"/>
<line y1="-49" x2="2923.59" y2="-49" transform="matrix(0.867678 -0.497127 0.651586 0.758575 928.952 1846.86)" stroke="black" stroke-width="98"/>
<line y1="-49" x2="2923.59" y2="-49" transform="matrix(0.867678 -0.497127 0.651586 0.758575 -89.5956 2867.33)" stroke="black" stroke-width="98"/>
<line y1="-49" x2="2923.59" y2="-49" transform="matrix(0.867678 -0.497127 0.651586 0.758575 36.1605 3013.74)" stroke="black" stroke-width="98"/>
<line y1="-49" x2="2923.59" y2="-49" transform="matrix(0.867678 -0.497127 0.651586 0.758575 1431.97 2432.48)" stroke="black" stroke-width="98"/>
<line y1="-49" x2="2923.59" y2="-49" transform="matrix(0.867678 -0.497127 0.651586 0.758575 287.675 3306.55)" stroke="black" stroke-width="98"/>
<line y1="-49" x2="2923.59" y2="-49" transform="matrix(0.867678 -0.497127 0.651586 0.758575 413.428 3452.96)" stroke="black" stroke-width="98"/>
<line y1="-49" x2="2923.59" y2="-49" transform="matrix(0.867678 -0.497127 0.651586 0.758575 539.185 3599.36)" stroke="black" stroke-width="98"/>
<line y1="-49" x2="2923.59" y2="-49" transform="matrix(0.867678 -0.497127 0.651586 0.758575 1934.99 3018.1)" stroke="black" stroke-width="98"/>
<line y1="-49" x2="2923.59" y2="-49" transform="matrix(0.867678 -0.497127 0.651586 0.758575 2060.75 3164.51)" stroke="black" stroke-width="98"/>
<line y1="-49" x2="2923.59" y2="-49" transform="matrix(0.867678 -0.497127 0.651586 0.758575 916.451 4038.58)" stroke="black" stroke-width="98"/>
<line y1="-49" x2="2923.59" y2="-49" transform="matrix(0.867678 -0.497127 0.651586 0.758575 2312.27 3457.32)" stroke="black" stroke-width="98"/>
<line y1="-49" x2="2923.59" y2="-49" transform="matrix(0.867678 -0.497127 0.651586 0.758575 -591.438 2283.1)" stroke="black" stroke-width="98"/>
<line y1="-49" x2="2923.59" y2="-49" transform="matrix(0.867678 -0.497127 0.651586 0.758575 -341.111 2574.52)" stroke="black" stroke-width="98"/>
<line y1="-49" x2="2923.59" y2="-49" transform="matrix(0.867678 -0.497127 0.651586 0.758575 1180.46 2139.67)" stroke="black" stroke-width="98"/>
<line y1="-49" x2="2923.59" y2="-49" transform="matrix(0.867678 -0.497127 0.651586 0.758575 1306.21 2286.08)" stroke="black" stroke-width="98"/>
<line y1="-49" x2="2923.59" y2="-49" transform="matrix(0.867678 -0.497127 0.651586 0.758575 161.915 3160.14)" stroke="black" stroke-width="98"/>
<line y1="-49" x2="2923.59" y2="-49" transform="matrix(0.867678 -0.497127 0.651586 0.758575 1557.73 2578.89)" stroke="black" stroke-width="98"/>
<line y1="-49" x2="2923.59" y2="-49" transform="matrix(0.867678 -0.497127 0.651586 0.758575 1683.48 2725.29)" stroke="black" stroke-width="98"/>
<line y1="-49" x2="2923.59" y2="-49" transform="matrix(0.867678 -0.497127 0.651586 0.758575 1809.24 2871.7)" stroke="black" stroke-width="98"/>
<line y1="-49" x2="2923.59" y2="-49" transform="matrix(0.867678 -0.497127 0.651586 0.758575 664.938 3745.77)" stroke="black" stroke-width="98"/>
<line y1="-49" x2="2923.59" y2="-49" transform="matrix(0.867678 -0.497127 0.651586 0.758575 790.693 3892.17)" stroke="black" stroke-width="98"/>
<line y1="-49" x2="2923.59" y2="-49" transform="matrix(0.867678 -0.497127 0.651586 0.758575 2186.51 3310.91)" stroke="black" stroke-width="98"/>
<line y1="-49" x2="2923.59" y2="-49" transform="matrix(0.867678 -0.497127 0.651586 0.758575 1042.2 4184.98)" stroke="black" stroke-width="98"/>
<g filter="url(#filter0_fn_3_2)">
<rect x="138" y="156" width="2706.38" height="2706.38" rx="800" transform="rotate(-0.390255 138 156)" fill="url(#paint0_radial_3_2)"/>
<g clip-path="url(#paint1_angular_3_2_clip_path)" data-figma-skip-parse="true"><g transform="matrix(0.0989422 1.35255 -1.35255 0.0989422 1500.37 1499.94)"><foreignObject x="-1062.18" y="-1062.18" width="2124.36" height="2124.36"><div xmlns="http://www.w3.org/1999/xhtml" style="background:conic-gradient(from 90deg,rgba(252, 252, 252, 1) 0deg,rgba(255, 255, 255, 1) 0.248477deg,rgba(0, 0, 0, 1) 50.625deg,rgba(0, 0, 0, 1) 51.9653deg,rgba(255, 255, 255, 1) 88.125deg,rgba(0, 0, 0, 1) 142.5deg,rgba(255, 255, 255, 1) 196.875deg,rgba(0, 0, 0, 1) 256.875deg,rgba(255, 255, 255, 1) 300deg,rgba(0, 0, 0, 1) 335.202deg,rgba(0, 0, 0, 1) 335.342deg,rgba(252, 252, 252, 1) 360deg);height:100%;width:100%;opacity:0.56"></div></foreignObject></g></g><rect x="138" y="156" width="2706.38" height="2706.38" rx="800" transform="rotate(-0.390255 138 156)" data-figma-gradient-fill="{&#34;type&#34;:&#34;GRADIENT_ANGULAR&#34;,&#34;stops&#34;:[{&#34;color&#34;:{&#34;r&#34;:1.0,&#34;g&#34;:1.0,&#34;b&#34;:1.0,&#34;a&#34;:1.0},&#34;position&#34;:0.00069021427771076560},{&#34;color&#34;:{&#34;r&#34;:0.0,&#34;g&#34;:0.0,&#34;b&#34;:0.0,&#34;a&#34;:1.0},&#34;position&#34;:0.1406250},{&#34;color&#34;:{&#34;r&#34;:0.0,&#34;g&#34;:0.0,&#34;b&#34;:0.0,&#34;a&#34;:1.0},&#34;position&#34;:0.14434811472892761},{&#34;color&#34;:{&#34;r&#34;:1.0,&#34;g&#34;:1.0,&#34;b&#34;:1.0,&#34;a&#34;:1.0},&#34;position&#34;:0.24479167163372040},{&#34;color&#34;:{&#34;r&#34;:0.0,&#34;g&#34;:0.0,&#34;b&#34;:0.0,&#34;a&#34;:1.0},&#34;position&#34;:0.39583334326744080},{&#34;color&#34;:{&#34;r&#34;:1.0,&#34;g&#34;:1.0,&#34;b&#34;:1.0,&#34;a&#34;:1.0},&#34;position&#34;:0.5468750},{&#34;color&#34;:{&#34;r&#34;:0.0,&#34;g&#34;:0.0,&#34;b&#34;:0.0,&#34;a&#34;:1.0},&#34;position&#34;:0.71354168653488159},{&#34;color&#34;:{&#34;r&#34;:1.0,&#34;g&#34;:1.0,&#34;b&#34;:1.0,&#34;a&#34;:1.0},&#34;position&#34;:0.83333331346511841},{&#34;color&#34;:{&#34;r&#34;:0.0,&#34;g&#34;:0.0,&#34;b&#34;:0.0,&#34;a&#34;:1.0},&#34;position&#34;:0.93111741542816162},{&#34;color&#34;:{&#34;r&#34;:0.0,&#34;g&#34;:0.0,&#34;b&#34;:0.0,&#34;a&#34;:1.0},&#34;position&#34;:0.93150448799133301}],&#34;stopsVar&#34;:[],&#34;transform&#34;:{&#34;m00&#34;:197.88446044921875,&#34;m01&#34;:-2705.0905761718750,&#34;m02&#34;:2753.9763183593750,&#34;m10&#34;:2705.0905761718750,&#34;m11&#34;:197.88446044921875,&#34;m12&#34;:48.452091217041016},&#34;opacity&#34;:0.56000000238418579,&#34;blendMode&#34;:&#34;DIFFERENCE&#34;,&#34;visible&#34;:true}" style="mix-blend-mode:difference"/>
<g clip-path="url(#paint2_angular_3_2_clip_path)" data-figma-skip-parse="true"><g transform="matrix(0.0989422 1.35255 -1.35255 0.0989422 1500.37 1499.94)"><foreignObject x="-1062.18" y="-1062.18" width="2124.36" height="2124.36"><div xmlns="http://www.w3.org/1999/xhtml" style="background:conic-gradient(from 90deg,rgba(252, 252, 252, 1) 0deg,rgba(255, 255, 255, 1) 0.248477deg,rgba(0, 0, 0, 1) 50.625deg,rgba(0, 0, 0, 1) 51.9653deg,rgba(255, 255, 255, 1) 88.125deg,rgba(0, 0, 0, 1) 142.5deg,rgba(255, 255, 255, 1) 196.875deg,rgba(0, 0, 0, 1) 256.875deg,rgba(255, 255, 255, 1) 300deg,rgba(0, 0, 0, 1) 335.202deg,rgba(0, 0, 0, 1) 335.342deg,rgba(252, 252, 252, 1) 360deg);height:100%;width:100%;opacity:1"></div></foreignObject></g></g><rect x="138" y="156" width="2706.38" height="2706.38" rx="800" transform="rotate(-0.390255 138 156)" data-figma-gradient-fill="{&#34;type&#34;:&#34;GRADIENT_ANGULAR&#34;,&#34;stops&#34;:[{&#34;color&#34;:{&#34;r&#34;:1.0,&#34;g&#34;:1.0,&#34;b&#34;:1.0,&#34;a&#34;:1.0},&#34;position&#34;:0.00069021427771076560},{&#34;color&#34;:{&#34;r&#34;:0.0,&#34;g&#34;:0.0,&#34;b&#34;:0.0,&#34;a&#34;:1.0},&#34;position&#34;:0.1406250},{&#34;color&#34;:{&#34;r&#34;:0.0,&#34;g&#34;:0.0,&#34;b&#34;:0.0,&#34;a&#34;:1.0},&#34;position&#34;:0.14434811472892761},{&#34;color&#34;:{&#34;r&#34;:1.0,&#34;g&#34;:1.0,&#34;b&#34;:1.0,&#34;a&#34;:1.0},&#34;position&#34;:0.24479167163372040},{&#34;color&#34;:{&#34;r&#34;:0.0,&#34;g&#34;:0.0,&#34;b&#34;:0.0,&#34;a&#34;:1.0},&#34;position&#34;:0.39583334326744080},{&#34;color&#34;:{&#34;r&#34;:1.0,&#34;g&#34;:1.0,&#34;b&#34;:1.0,&#34;a&#34;:1.0},&#34;position&#34;:0.5468750},{&#34;color&#34;:{&#34;r&#34;:0.0,&#34;g&#34;:0.0,&#34;b&#34;:0.0,&#34;a&#34;:1.0},&#34;position&#34;:0.71354168653488159},{&#34;color&#34;:{&#34;r&#34;:1.0,&#34;g&#34;:1.0,&#34;b&#34;:1.0,&#34;a&#34;:1.0},&#34;position&#34;:0.83333331346511841},{&#34;color&#34;:{&#34;r&#34;:0.0,&#34;g&#34;:0.0,&#34;b&#34;:0.0,&#34;a&#34;:1.0},&#34;position&#34;:0.93111741542816162},{&#34;color&#34;:{&#34;r&#34;:0.0,&#34;g&#34;:0.0,&#34;b&#34;:0.0,&#34;a&#34;:1.0},&#34;position&#34;:0.93150448799133301}],&#34;stopsVar&#34;:[],&#34;transform&#34;:{&#34;m00&#34;:197.88446044921875,&#34;m01&#34;:-2705.0905761718750,&#34;m02&#34;:2753.9763183593750,&#34;m10&#34;:2705.0905761718750,&#34;m11&#34;:197.88446044921875,&#34;m12&#34;:48.452091217041016},&#34;opacity&#34;:1.0,&#34;blendMode&#34;:&#34;DIFFERENCE&#34;,&#34;visible&#34;:true}" style="mix-blend-mode:difference"/>
</g>
<path d="M1321.6 722C1400.89 584.667 1599.11 584.667 1678.4 722L2319.26 1832C2398.55 1969.33 2299.44 2141 2140.86 2141H859.142C700.563 2141 601.451 1969.33 680.74 1832L1321.6 722Z" fill="#FFCC00" stroke="black" stroke-width="98"/>
<path d="M1431.18 1628.55C1421.02 1628.55 1413.8 1624.84 1409.5 1617.41C1403.64 1606.87 1400.71 1587.14 1400.71 1558.23C1400.71 1524.25 1406.96 1496.91 1419.46 1476.2C1432.35 1455.11 1454.23 1434.41 1485.09 1414.09C1506.18 1400.03 1523.37 1388.12 1536.65 1378.35C1550.32 1368.59 1560.28 1358.04 1566.53 1346.71C1572.78 1334.99 1575.91 1319.95 1575.91 1301.59C1575.91 1274.64 1567.31 1253.94 1550.12 1239.48C1533.33 1224.64 1509.5 1217.22 1478.64 1217.22C1452.86 1217.22 1428.64 1221.32 1405.98 1229.52C1383.72 1237.34 1365.36 1245.54 1350.91 1254.13C1345.83 1257.26 1340.55 1258.04 1335.09 1256.48C1329.62 1254.91 1325.71 1251.2 1323.37 1245.34L1278.25 1139.29C1274.34 1130.3 1276.49 1123.27 1284.7 1118.2C1303.05 1106.87 1329.81 1094.95 1364.97 1082.45C1400.52 1069.95 1446.8 1063.7 1503.84 1063.7C1552.27 1063.7 1595.83 1070.93 1634.5 1085.38C1673.56 1099.84 1704.42 1122.69 1727.08 1153.94C1749.73 1185.19 1761.06 1225.81 1761.06 1275.81C1761.06 1312.14 1756.57 1342.22 1747.59 1366.05C1738.6 1389.88 1724.73 1411.16 1705.98 1429.91C1687.62 1448.27 1664.19 1467.61 1635.67 1487.92C1601.69 1512.14 1579.42 1530.3 1568.88 1542.41C1558.33 1554.52 1553.05 1566.24 1553.05 1577.57C1553.05 1585.77 1553.84 1592.22 1555.4 1596.91C1556.96 1601.2 1557.74 1606.09 1557.74 1611.55C1557.74 1622.88 1550.91 1628.55 1537.23 1628.55H1431.18ZM1364.38 1816.63C1364.38 1811.55 1365.95 1807.06 1369.07 1803.16C1372.59 1798.86 1377.08 1793.39 1382.55 1786.75C1394.27 1773.47 1407.74 1759.6 1422.98 1745.15C1438.21 1730.3 1453.84 1716.05 1469.85 1702.38C1479.62 1694.56 1486.84 1690.66 1491.53 1690.66C1496.22 1690.66 1503.84 1694.56 1514.38 1702.38C1547.2 1730.89 1575.91 1759.02 1600.52 1786.75C1605.59 1793.39 1609.89 1798.86 1613.41 1803.16C1616.92 1807.06 1618.68 1811.55 1618.68 1816.63C1618.68 1822.1 1616.73 1826.98 1612.82 1831.28C1609.3 1835.58 1605.01 1841.24 1599.93 1848.27C1588.6 1861.16 1575.32 1874.84 1560.09 1889.29C1545.24 1903.35 1530.01 1917.22 1514.38 1930.89C1504.62 1939.09 1497 1943.2 1491.53 1943.2C1487.23 1943.2 1479.62 1939.09 1468.68 1930.89C1451.88 1917.22 1436.26 1903.16 1421.8 1888.7C1407.35 1874.25 1394.27 1860.19 1382.55 1846.52C1377.08 1839.88 1372.59 1834.6 1369.07 1830.7C1365.95 1826.79 1364.38 1822.1 1364.38 1816.63Z" fill="black"/>
</g>
<rect x="0.5" y="0.5" width="2999" height="2999" rx="799.5" stroke="black"/>
<defs>
<filter id="filter0_fn_3_2" x="-1.67001" y="-2.10364" width="3004.09" height="3004.09" filterUnits="userSpaceOnUse" color-interpolation-filters="sRGB">
<feFlood flood-opacity="0" result="BackgroundImageFix"/>
<feBlend mode="normal" in="SourceGraphic" in2="BackgroundImageFix" result="shape"/>
<feGaussianBlur stdDeviation="72.55" result="effect1_foregroundBlur_3_2"/>
<feTurbulence type="fractalNoise" baseFrequency="2 2" stitchTiles="stitch" numOctaves="3" result="noise" seed="6853" />
<feComponentTransfer in="noise" result="coloredNoise1">
<feFuncR type="linear" slope="2" intercept="-0.5" />
<feFuncG type="linear" slope="2" intercept="-0.5" />
<feFuncB type="linear" slope="2" intercept="-0.5" />
<feFuncA type="discrete" tableValues="1 1 1 1 1 1 1 1 1 1 1 1 1 1 1 1 1 1 1 1 1 1 1 1 1 1 1 1 1 1 1 1 1 1 1 1 1 1 1 1 1 1 1 1 1 1 1 1 1 1 1 0 0 0 0 0 0 0 0 0 0 0 0 0 0 0 0 0 0 0 0 0 0 0 0 0 0 0 0 0 0 0 0 0 0 0 0 0 0 0 0 0 0 0 0 0 0 0 0 0 "/>
</feComponentTransfer>
<feComposite operator="in" in2="effect1_foregroundBlur_3_2" in="coloredNoise1" result="noise1Clipped" />
<feComponentTransfer in="noise1Clipped" result="color1">
<feFuncA type="table" tableValues="0 0.26" />
</feComponentTransfer>
<feMerge result="effect2_noise_3_2">
<feMergeNode in="effect1_foregroundBlur_3_2" />
<feMergeNode in="color1" />
</feMerge>
</filter>
<clipPath id="paint1_angular_3_2_clip_path"><rect x="138" y="156" width="2706.38" height="2706.38" rx="800" transform="rotate(-0.390255 138 156)"/></clipPath><clipPath id="paint2_angular_3_2_clip_path"><rect x="138" y="156" width="2706.38" height="2706.38" rx="800" transform="rotate(-0.390255 138 156)"/></clipPath><radialGradient id="paint0_radial_3_2" cx="0" cy="0" r="1" gradientUnits="userSpaceOnUse" gradientTransform="translate(1129.75 288.233) rotate(82.0073) scale(2599.39)">
<stop stop-color="#2AD0CA"/>
<stop offset="0.229167" stop-color="#E1F664"/>
<stop offset="0.46875" stop-color="#FEB0FE"/>
<stop offset="0.682292" stop-color="#ABB3FC"/>
<stop offset="0.875" stop-color="#5DF7A4"/>
<stop offset="1" stop-color="#58C4F6"/>
</radialGradient>
<clipPath id="clip0_3_2">
<rect width="3000" height="3000" rx="800" fill="white"/>
</clipPath>
</defs>
</svg>
