<svg width="3000" height="3000" viewBox="0 0 3000 3000" fill="none" xmlns="http://www.w3.org/2000/svg">
<line y1="-49" x2="2923.59" y2="-49" transform="matrix(0.867678 -0.497127 0.651586 0.758575 -578.946 180.393)" stroke="black" stroke-width="98"/>
<line y1="-49" x2="2923.59" y2="-49" transform="matrix(0.867678 -0.497127 0.651586 0.758575 -453.188 326.799)" stroke="black" stroke-width="98"/>
<line y1="-49" x2="2923.59" y2="-49" transform="matrix(0.867678 -0.497127 0.651586 0.758575 -1597.49 1200.85)" stroke="black" stroke-width="98"/>
<line y1="-49" x2="2923.59" y2="-49" transform="matrix(0.867678 -0.497127 0.651586 0.758575 -1471.73 1347.26)" stroke="black" stroke-width="98"/>
<line y1="-49" x2="2923.59" y2="-49" transform="matrix(0.867678 -0.497127 0.651586 0.758575 -75.9164 766.015)" stroke="black" stroke-width="98"/>
<line y1="-49" x2="2923.59" y2="-49" transform="matrix(0.867678 -0.497127 0.651586 0.758575 -1220.22 1640.07)" stroke="black" stroke-width="98"/>
<line y1="-49" x2="2923.59" y2="-49" transform="matrix(0.867678 -0.497127 0.651586 0.758575 -1094.46 1786.47)" stroke="black" stroke-width="98"/>
<line y1="-49" x2="2923.59" y2="-49" transform="matrix(0.867678 -0.497127 0.651586 0.758575 -968.708 1932.88)" stroke="black" stroke-width="98"/>
<line y1="-49" x2="2923.59" y2="-49" transform="matrix(0.867678 -0.497127 0.651586 0.758575 427.109 1351.62)" stroke="black" stroke-width="98"/>
<line y1="-49" x2="2923.59" y2="-49" transform="matrix(0.867678 -0.497127 0.651586 0.758575 552.865 1498.02)" stroke="black" stroke-width="98"/>
<line y1="-49" x2="2923.59" y2="-49" transform="matrix(0.867678 -0.497127 0.651586 0.758575 -466.867 2517.12)" stroke="black" stroke-width="98"/>
<line y1="-49" x2="2923.59" y2="-49" transform="matrix(0.867678 -0.497127 0.651586 0.758575 1054.7 2082.26)" stroke="black" stroke-width="98"/>
<line y1="-49" x2="2920.49" y2="-49" transform="matrix(0.862345 -0.506322 0.642373 0.766392 -1849 908.048)" stroke="black" stroke-width="98"/>
<line y1="-49" x2="2923.59" y2="-49" transform="matrix(0.867678 -0.497127 0.651586 0.758575 -1723.24 1054.45)" stroke="black" stroke-width="98"/>
<line y1="-49" x2="2923.59" y2="-49" transform="matrix(0.867678 -0.497127 0.651586 0.758575 -327.426 473.204)" stroke="black" stroke-width="98"/>
<line y1="-49" x2="2923.59" y2="-49" transform="matrix(0.867678 -0.497127 0.651586 0.758575 -201.672 619.609)" stroke="black" stroke-width="98"/>
<line y1="-49" x2="2923.59" y2="-49" transform="matrix(0.867678 -0.497127 0.651586 0.758575 -1345.98 1493.66)" stroke="black" stroke-width="98"/>
<line y1="-49" x2="2923.59" y2="-49" transform="matrix(0.867678 -0.497127 0.651586 0.758575 49.8395 912.403)" stroke="black" stroke-width="98"/>
<line y1="-49" x2="2923.59" y2="-49" transform="matrix(0.867678 -0.497127 0.651586 0.758575 175.594 1058.81)" stroke="black" stroke-width="98"/>
<line y1="-49" x2="2923.59" y2="-49" transform="matrix(0.867678 -0.497127 0.651586 0.758575 301.353 1205.21)" stroke="black" stroke-width="98"/>
<line y1="-49" x2="2923.59" y2="-49" transform="matrix(0.867678 -0.497127 0.651586 0.758575 -842.949 2079.28)" stroke="black" stroke-width="98"/>
<line y1="-49" x2="2923.59" y2="-49" transform="matrix(0.867678 -0.497127 0.651586 0.758575 -717.192 2225.69)" stroke="black" stroke-width="98"/>
<line y1="-49" x2="2923.59" y2="-49" transform="matrix(0.867678 -0.497127 0.651586 0.758575 803.193 1789.45)" stroke="black" stroke-width="98"/>
<line y1="-49" x2="2923.59" y2="-49" transform="matrix(0.867678 -0.497127 0.651586 0.758575 -215.357 2809.93)" stroke="black" stroke-width="98"/>
<line y1="-49" x2="2923.59" y2="-49" transform="matrix(0.867678 -0.497127 0.651586 0.758575 678.622 1644.43)" stroke="black" stroke-width="98"/>
<line y1="-49" x2="2923.59" y2="-49" transform="matrix(0.867678 -0.497127 0.651586 0.758575 928.952 1935.86)" stroke="black" stroke-width="98"/>
<line y1="-49" x2="2923.59" y2="-49" transform="matrix(0.867678 -0.497127 0.651586 0.758575 -89.5956 2956.33)" stroke="black" stroke-width="98"/>
<line y1="-49" x2="2923.59" y2="-49" transform="matrix(0.867678 -0.497127 0.651586 0.758575 36.1605 3102.74)" stroke="black" stroke-width="98"/>
<line y1="-49" x2="2923.59" y2="-49" transform="matrix(0.867678 -0.497127 0.651586 0.758575 1431.97 2521.48)" stroke="black" stroke-width="98"/>
<line y1="-49" x2="2923.59" y2="-49" transform="matrix(0.867678 -0.497127 0.651586 0.758575 287.675 3395.55)" stroke="black" stroke-width="98"/>
<line y1="-49" x2="2923.59" y2="-49" transform="matrix(0.867678 -0.497127 0.651586 0.758575 413.428 3541.96)" stroke="black" stroke-width="98"/>
<line y1="-49" x2="2923.59" y2="-49" transform="matrix(0.867678 -0.497127 0.651586 0.758575 539.185 3688.36)" stroke="black" stroke-width="98"/>
<line y1="-49" x2="2923.59" y2="-49" transform="matrix(0.867678 -0.497127 0.651586 0.758575 1934.99 3107.1)" stroke="black" stroke-width="98"/>
<line y1="-49" x2="2923.59" y2="-49" transform="matrix(0.867678 -0.497127 0.651586 0.758575 2060.75 3253.51)" stroke="black" stroke-width="98"/>
<line y1="-49" x2="2923.59" y2="-49" transform="matrix(0.867678 -0.497127 0.651586 0.758575 916.451 4127.58)" stroke="black" stroke-width="98"/>
<line y1="-49" x2="2923.59" y2="-49" transform="matrix(0.867678 -0.497127 0.651586 0.758575 2312.27 3546.32)" stroke="black" stroke-width="98"/>
<line y1="-49" x2="2923.59" y2="-49" transform="matrix(0.867678 -0.497127 0.651586 0.758575 -591.438 2372.1)" stroke="black" stroke-width="98"/>
<line y1="-49" x2="2923.59" y2="-49" transform="matrix(0.867678 -0.497127 0.651586 0.758575 -341.111 2663.52)" stroke="black" stroke-width="98"/>
<line y1="-49" x2="2923.59" y2="-49" transform="matrix(0.867678 -0.497127 0.651586 0.758575 1180.46 2228.67)" stroke="black" stroke-width="98"/>
<line y1="-49" x2="2923.59" y2="-49" transform="matrix(0.867678 -0.497127 0.651586 0.758575 1306.21 2375.08)" stroke="black" stroke-width="98"/>
<line y1="-49" x2="2923.59" y2="-49" transform="matrix(0.867678 -0.497127 0.651586 0.758575 161.915 3249.14)" stroke="black" stroke-width="98"/>
<line y1="-49" x2="2923.59" y2="-49" transform="matrix(0.867678 -0.497127 0.651586 0.758575 1557.73 2667.89)" stroke="black" stroke-width="98"/>
<line y1="-49" x2="2923.59" y2="-49" transform="matrix(0.867678 -0.497127 0.651586 0.758575 1683.48 2814.29)" stroke="black" stroke-width="98"/>
<line y1="-49" x2="2923.59" y2="-49" transform="matrix(0.867678 -0.497127 0.651586 0.758575 1809.24 2960.7)" stroke="black" stroke-width="98"/>
<line y1="-49" x2="2923.59" y2="-49" transform="matrix(0.867678 -0.497127 0.651586 0.758575 664.938 3834.77)" stroke="black" stroke-width="98"/>
<line y1="-49" x2="2923.59" y2="-49" transform="matrix(0.867678 -0.497127 0.651586 0.758575 790.693 3981.17)" stroke="black" stroke-width="98"/>
<line y1="-49" x2="2923.59" y2="-49" transform="matrix(0.867678 -0.497127 0.651586 0.758575 2186.51 3399.91)" stroke="black" stroke-width="98"/>
<line y1="-49" x2="2923.59" y2="-49" transform="matrix(0.867678 -0.497127 0.651586 0.758575 1042.2 4273.98)" stroke="black" stroke-width="98"/>
</svg>
