<svg width="489" height="880" viewBox="0 0 489 880" fill="none" xmlns="http://www.w3.org/2000/svg">
<path d="M158.789 564.844C148.633 564.844 141.406 561.133 137.109 553.711C131.25 543.164 128.32 523.438 128.32 494.531C128.32 460.547 134.57 433.203 147.07 412.5C159.961 391.406 181.836 370.703 212.695 350.391C233.789 336.328 250.977 324.414 264.258 314.648C277.93 304.883 287.891 294.336 294.141 283.008C300.391 271.289 303.516 256.25 303.516 237.891C303.516 210.938 294.922 190.234 277.734 175.781C260.938 160.938 237.109 153.516 206.25 153.516C180.469 153.516 156.25 157.617 133.594 165.82C111.328 173.633 92.9688 181.836 78.5156 190.43C73.4375 193.555 68.1641 194.336 62.6953 192.773C57.2266 191.211 53.3203 187.5 50.9766 181.641L5.85938 75.5859C1.95312 66.6016 4.10156 59.5703 12.3047 54.4922C30.6641 43.1641 57.4219 31.25 92.5781 18.75C128.125 6.25 174.414 0 231.445 0C279.883 0 323.438 7.22656 362.109 21.6797C401.172 36.1328 432.031 58.9844 454.688 90.2344C477.344 121.484 488.672 162.109 488.672 212.109C488.672 248.438 484.18 278.516 475.195 302.344C466.211 326.172 452.344 347.461 433.594 366.211C415.234 384.57 391.797 403.906 363.281 424.219C329.297 448.438 307.031 466.602 296.484 478.711C285.938 490.82 280.664 502.539 280.664 513.867C280.664 522.07 281.445 528.516 283.008 533.203C284.57 537.5 285.352 542.383 285.352 547.852C285.352 559.18 278.516 564.844 264.844 564.844H158.789ZM91.9922 752.93C91.9922 747.852 93.5547 743.359 96.6797 739.453C100.195 735.156 104.688 729.688 110.156 723.047C121.875 709.766 135.352 695.898 150.586 681.445C165.82 666.602 181.445 652.344 197.461 638.672C207.227 630.859 214.453 626.953 219.141 626.953C223.828 626.953 231.445 630.859 241.992 638.672C274.805 667.188 303.516 695.312 328.125 723.047C333.203 729.688 337.5 735.156 341.016 739.453C344.531 743.359 346.289 747.852 346.289 752.93C346.289 758.398 344.336 763.281 340.43 767.578C336.914 771.875 332.617 777.539 327.539 784.57C316.211 797.461 302.93 811.133 287.695 825.586C272.852 839.648 257.617 853.516 241.992 867.188C232.227 875.391 224.609 879.492 219.141 879.492C214.844 879.492 207.227 875.391 196.289 867.188C179.492 853.516 163.867 839.453 149.414 825C134.961 810.547 121.875 796.484 110.156 782.812C104.688 776.172 100.195 770.898 96.6797 766.992C93.5547 763.086 91.9922 758.398 91.9922 752.93Z" fill="black"/>
</svg>
